<svg width="109" height="28" viewBox="0 0 109 28" fill="none" xmlns="http://www.w3.org/2000/svg">
<path fill-rule="evenodd" clip-rule="evenodd" d="M28 14C28 21.7319 21.7319 28 14 28C11.7604 28 9.64372 27.4742 7.76654 26.5391C7.26769 26.2907 6.6975 26.208 6.15915 26.3521L3.04269 27.1859C1.68981 27.5478 0.45213 26.3102 0.814114 24.9574L1.64797 21.8408C1.79201 21.3025 1.70932 20.7323 1.46084 20.2335C0.525868 18.3562 0 16.2396 0 14C0 6.26801 6.26801 0 14 0C21.7319 0 28 6.26801 28 14ZM18.1094 11.2031H20.5469C20.4115 10.3438 20.151 9.58073 19.7656 8.91406C19.3802 8.24219 18.8932 7.67448 18.3047 7.21094C17.7161 6.74219 17.0521 6.38802 16.3125 6.14844C15.5781 5.90365 14.7865 5.78125 13.9375 5.78125C12.5573 5.78125 11.3255 6.11198 10.2422 6.77344C9.15885 7.42969 8.30469 8.3724 7.67969 9.60156C7.05469 10.8255 6.74219 12.2917 6.74219 14C6.74219 15.7031 7.05208 17.1693 7.67188 18.3984C8.29688 19.6276 9.15104 20.5729 10.2344 21.2344C11.3177 21.8906 12.5521 22.2188 13.9375 22.2188C14.8177 22.2188 15.6302 22.0885 16.375 21.8281C17.1198 21.5677 17.7812 21.2005 18.3594 20.7266C18.9427 20.2474 19.4193 19.6797 19.7891 19.0234C20.1641 18.362 20.4167 17.638 20.5469 16.8516L18.1094 16.8438C18.0104 17.3542 17.8307 17.8073 17.5703 18.2031C17.3151 18.5938 17.0026 18.9245 16.6328 19.1953C16.263 19.4661 15.849 19.6719 15.3906 19.8125C14.9375 19.9479 14.4583 20.0156 13.9531 20.0156C13.0417 20.0156 12.2214 19.7865 11.4922 19.3281C10.763 18.8698 10.1875 18.1927 9.76562 17.2969C9.34896 16.401 9.14062 15.3021 9.14062 14C9.14062 12.7083 9.34896 11.6146 9.76562 10.7188C10.1875 9.82292 10.7604 9.14323 11.4844 8.67969C12.2135 8.21615 13.0391 7.98438 13.9609 7.98438C14.4714 7.98438 14.9531 8.05469 15.4062 8.19531C15.8646 8.33594 16.2786 8.54427 16.6484 8.82031C17.0182 9.09635 17.3307 9.43229 17.5859 9.82812C17.8411 10.224 18.0156 10.6823 18.1094 11.2031Z" fill="black"/>
<path d="M33.9063 14.875V22H31.5703V6H33.875V11.9531H34.0234C34.3047 11.3073 34.7344 10.7943 35.3125 10.4141C35.8906 10.0339 36.6458 9.84375 37.5781 9.84375C38.401 9.84375 39.1198 10.013 39.7344 10.3516C40.3542 10.6901 40.8333 11.1953 41.1719 11.8672C41.5156 12.5339 41.6875 13.3672 41.6875 14.3672V22H39.3516V14.6484C39.3516 13.7682 39.125 13.0859 38.6719 12.6016C38.2188 12.112 37.5885 11.8672 36.7813 11.8672C36.2292 11.8672 35.7344 11.9844 35.2969 12.2188C34.8646 12.4531 34.5234 12.7969 34.2734 13.25C34.0286 13.6979 33.9063 14.2396 33.9063 14.875Z" fill="black"/>
<path d="M48.2969 22.2656C47.5365 22.2656 46.849 22.125 46.2344 21.8438C45.6198 21.5573 45.1328 21.1432 44.7734 20.6016C44.4193 20.0599 44.2422 19.3958 44.2422 18.6094C44.2422 17.9323 44.3724 17.375 44.6328 16.9375C44.8932 16.5 45.2448 16.1536 45.6875 15.8984C46.1302 15.6432 46.625 15.4505 47.1719 15.3203C47.7188 15.1901 48.276 15.0911 48.8438 15.0234C49.5625 14.9401 50.1458 14.8724 50.5938 14.8203C51.0417 14.763 51.3672 14.6719 51.5703 14.5469C51.7734 14.4219 51.875 14.2188 51.875 13.9375V13.8828C51.875 13.2005 51.6823 12.6719 51.2969 12.2969C50.9167 11.9219 50.349 11.7344 49.5938 11.7344C48.8073 11.7344 48.1875 11.9089 47.7344 12.2578C47.2865 12.6016 46.9766 12.9844 46.8047 13.4063L44.6094 12.9063C44.8698 12.1771 45.25 11.5885 45.75 11.1406C46.2552 10.6875 46.8359 10.3594 47.4922 10.1562C48.1484 9.94792 48.8385 9.84375 49.5625 9.84375C50.0417 9.84375 50.5495 9.90104 51.0859 10.0156C51.6276 10.125 52.1328 10.3281 52.6016 10.625C53.0755 10.9219 53.4635 11.3464 53.7656 11.8984C54.0677 12.4453 54.2188 13.1563 54.2188 14.0313V22H51.9375V20.3594H51.8438C51.6927 20.6615 51.4661 20.9583 51.1641 21.25C50.862 21.5417 50.474 21.7839 50 21.9766C49.526 22.1693 48.9583 22.2656 48.2969 22.2656ZM48.8047 20.3906C49.4505 20.3906 50.0026 20.263 50.4609 20.0078C50.9245 19.7526 51.276 19.4193 51.5156 19.0078C51.7604 18.5911 51.8828 18.1458 51.8828 17.6719V16.125C51.7995 16.2083 51.638 16.2865 51.3984 16.3594C51.1641 16.4271 50.8958 16.487 50.5938 16.5391C50.2917 16.5859 49.9974 16.6302 49.7109 16.6719C49.4245 16.7083 49.1849 16.7396 48.9922 16.7656C48.5391 16.8229 48.125 16.9193 47.75 17.0547C47.3802 17.1901 47.0833 17.3854 46.8594 17.6406C46.6406 17.8906 46.5312 18.224 46.5312 18.6406C46.5312 19.2188 46.7448 19.6562 47.1719 19.9531C47.599 20.2448 48.1432 20.3906 48.8047 20.3906Z" fill="black"/>
<path d="M62.9316 10V11.875H56.377V10H62.9316ZM58.1348 7.125H60.4707V18.4766C60.4707 18.9297 60.5384 19.2708 60.6738 19.5C60.8092 19.724 60.9837 19.8776 61.1973 19.9609C61.416 20.0391 61.653 20.0781 61.9082 20.0781C62.0957 20.0781 62.2598 20.0651 62.4004 20.0391C62.541 20.013 62.6504 19.9922 62.7285 19.9766L63.1504 21.9062C63.015 21.9583 62.8223 22.0104 62.5723 22.0625C62.3223 22.1198 62.0098 22.151 61.6348 22.1562C61.0202 22.1667 60.4473 22.0573 59.916 21.8281C59.3848 21.599 58.9551 21.2448 58.627 20.7656C58.2988 20.2865 58.1348 19.6849 58.1348 18.9609V7.125Z" fill="black"/>
<path d="M68.6641 22L64.2266 6H66.7656L69.8828 18.3906H70.0312L73.2734 6H75.7891L79.0312 18.3984H79.1797L82.2891 6H84.8359L80.3906 22H77.9609L74.5938 10.0156H74.4688L71.1016 22H68.6641Z" fill="black"/>
<path d="M90.8398 22.2422C89.6576 22.2422 88.6393 21.9896 87.7852 21.4844C86.9362 20.974 86.2799 20.2578 85.8164 19.3359C85.3581 18.4089 85.1289 17.3229 85.1289 16.0781C85.1289 14.849 85.3581 13.7656 85.8164 12.8281C86.2799 11.8906 86.9258 11.1589 87.7539 10.6328C88.5872 10.1068 89.5612 9.84375 90.6758 9.84375C91.3529 9.84375 92.0091 9.95573 92.6445 10.1797C93.2799 10.4036 93.8503 10.7552 94.3555 11.2344C94.8607 11.7135 95.2591 12.3359 95.5508 13.1016C95.8424 13.862 95.9883 14.7865 95.9883 15.875V16.7031H86.4492V14.9531H93.6992C93.6992 14.3385 93.5742 13.7943 93.3242 13.3203C93.0742 12.8411 92.7227 12.4635 92.2695 12.1875C91.8216 11.9115 91.2956 11.7734 90.6914 11.7734C90.0352 11.7734 89.4622 11.9349 88.9727 12.2578C88.4883 12.5755 88.1133 12.9922 87.8477 13.5078C87.5872 14.0182 87.457 14.5729 87.457 15.1719V16.5391C87.457 17.3411 87.5977 18.0234 87.8789 18.5859C88.1654 19.1484 88.5638 19.5781 89.0742 19.875C89.5846 20.1667 90.181 20.3125 90.8633 20.3125C91.306 20.3125 91.7096 20.25 92.0742 20.125C92.4388 19.9948 92.7539 19.8021 93.0195 19.5469C93.2852 19.2917 93.4883 18.9766 93.6289 18.6016L95.8398 19C95.6628 19.651 95.3451 20.2214 94.8867 20.7109C94.4336 21.1953 93.8633 21.5729 93.1758 21.8438C92.4935 22.1094 91.7148 22.2422 90.8398 22.2422Z" fill="black"/>
<path d="M100.145 10L102.793 14.6719L105.465 10H108.02L104.277 16L108.051 22H105.496L102.793 17.5156L100.098 22H97.5352L101.27 16L97.582 10H100.145Z" fill="black"/>
</svg>
